#!OML:ASF H:\Punching\Project 1\Capture day 1\Session 1\female.ASF
:FULLY-SPECIFIED
:DEGREES
3066
root 1.34249 15.2733 3.67171 9.56268 -10.557 -6.79021
lowerback 1.03975 -0.494116 -1.79018
upperback -4.1017 -0.584294 3.69924
thorax -4.77442 -0.146175 4.88542
lowerneck -10.9029 5.75748 17.5586
upperneck 39.3293 4.70863 -2.93803
head 16.7553 4.13645 -3.58044
rclavicle -1.01428e-014 -1.8723e-014
rhumerus 1.79283 14.2802 -61.3918
rradius 130.351
rwrist -11.763
rhand -30.4943 9.25546
rfingers 7.12502
rthumb -3.79476 -20.6905
lclavicle -1.01428e-014 -1.8723e-014
lhumerus 7.15087 -28.6764 65.6401
lradius 134.723
lwrist 0.376511
lhand -29.2607 5.63832
lfingers 7.12502
lthumb -2.60347 35.6022
rfemur -47.0722 2.39396 24.2875
rtibia 100.06
rfoot 2.23189 -4.78688
rtoes -4.03185
lfemur -34.7973 0.534336 -21.2172
ltibia 45.8133
lfoot -16.6157 13.1183
ltoes 12.9671
3067
root 1.33212 15.2598 3.63425 10.0417 -10.8433 -6.67675
lowerback 0.813716 -0.49058 -1.7574
upperback -4.28406 -0.581557 3.54661
thorax -4.8378 -0.145826 4.70555
lowerneck -10.9309 5.88646 17.6172
upperneck 39.0703 4.98386 -3.16923
head 16.6683 4.21543 -3.64021
rclavicle -5.50909e-015 -9.88954e-015
rhumerus 1.83538 14.4741 -61.5391
rradius 130.369
rwrist -11.8604
rhand -30.4393 9.22985
rfingers 7.12502
rthumb -3.74165 -20.7171
lclavicle -5.50909e-015 -9.88954e-015
lhumerus 7.19152 -28.3146 65.3597
lradius 134.741
lwrist 0.326746
lhand -29.2252 5.73679
lfingers 7.12502
lthumb -2.5692 35.7011
rfemur -44.9627 2.86695 24.0775
rtibia 98.3894
rfoot 2.35049 -5.19395
rtoes -3.72007
lfemur -35.6737 0.752972 -21.2658
ltibia 46.1858
lfoot -16.5814 12.9601
ltoes 12.7915
3068
root 1.3223 15.2451 3.59591 10.5039 -11.166 -6.54483
lowerback 0.593446 -0.46926 -1.73325
upperback -4.46823 -0.555692 3.38865
thorax -4.90859 -0.133802 4.5243
lowerneck -10.9518 6.00628 17.6605
upperneck 38.813 5.24639 -3.39219
head 16.5794 4.28874 -3.69555
rclavicle -3.88624e-014 2.50469e-014
rhumerus 1.889 14.6585 -61.6732
rradius 130.375
rwrist -11.8947
rhand -30.4287 9.24346
rfingers 7.12502
rthumb -3.73141 -20.7036
lclavicle -3.88624e-014 2.50469e-014
lhumerus 7.23743 -27.9504 65.0906
lradius 134.759
lwrist 0.270941
lhand -29.1787 5.80563
lfingers 7.12502
lthumb -2.52432 35.7704
rfemur -42.8971 3.27394 23.8136
rtibia 96.7219
rfoot 2.41173 -5.56122
rtoes -3.39043
lfemur -36.5357 0.981004 -21.3417
ltibia 46.5563
lfoot -16.5499 12.8251
ltoes 12.6613
3069
root 1.31309 15.2297 3.55659 10.9542 -11.5317 -6.40458
lowerback 0.375643 -0.43111 -1.71548
upperback -4.65611 -0.507676 3.23069
thorax -4.98659 -0.110556 4.34611
lowerneck -10.9556 6.11733 17.6866
upperneck 38.5576 5.49734 -3.60158
head 16.486 4.35726 -3.74374
rclavicle 1.34704e-014 -1.0138e-014
rhumerus 1.95276 14.8393 -61.7946
rradius 130.371
rwrist -11.8764
rhand -30.4555 9.28574
rfingers 7.12502
rthumb -3.7573 -20.6609
lclavicle 1.34704e-014 -1.0138e-014
lhumerus 7.28185 -27.5907 64.8293
lradius 134.789
lwrist 0.215795
lhand -29.1288 5.86878
lfingers 7.12502
lthumb -2.47609 35.8342
rfemur -40.8794 3.61563 23.5026
rtibia 95.0526
rfoot 2.41923 -5.90693
rtoes -3.06044
lfemur -37.3838 1.22517 -21.433
ltibia 46.9192
lfoot -16.5113 12.7103
ltoes 12.5325
3070
root 1.3044 15.2141 3.51625 11.393 -11.9376 -6.26068
lowerback 0.161162 -0.375182 -1.70062
upperback -4.8413 -0.436223 3.07239
thorax -5.06553 -0.0757947 4.16851
lowerneck -10.9734 6.22338 17.6979
upperneck 38.3153 5.73436 -3.79569
head 16.4014 4.4209 -3.78463
rclavicle -2.81723e-014 -1.76918e-014
rhumerus 2.04064 15.0033 -61.9012
rradius 130.36
rwrist -11.8278
rhand -30.4894 9.3187
rfingers 7.12502
rthumb -3.79009 -20.6273
lclavicle -2.81723e-014 -1.76918e-014
lhumerus 7.33594 -27.2345 64.574
lradius 134.825
lwrist 0.169578
lhand -29.0867 5.90851
lfingers 7.12502
lthumb -2.43543 35.8744
rfemur -38.906 3.87729 23.1478
rtibia 93.3752
rfoot 2.37694 -6.26958
rtoes -2.71685
lfemur -38.2118 1.485 -21.5329
ltibia 47.2657
lfoot -16.4656 12.6126
ltoes 12.3861
3071
root 1.29604 15.1986 3.47517 11.8192 -12.3838 -6.11783
lowerback -0.0525746 -0.302606 -1.68785
upperback -5.02395 -0.342722 2.91594
thorax -5.14376 -0.0302188 3.99343
lowerneck -10.9939 6.3234 17.7013
upperneck 38.084 5.95915 -3.98115
head 16.3221 4.48038 -3.82226
rclavicle 3.71945e-016 1.19271e-014
rhumerus 2.1467 15.1536 -61.9936
rradius 130.346
rwrist -11.776
rhand -30.5339 9.35405
rfingers 7.12502
rthumb -3.83304 -20.5912
lclavicle 3.71945e-016 1.19271e-014
lhumerus 7.40207 -26.8843 64.319
lradius 134.871
lwrist 0.146238
lhand -29.0499 5.94865
lfingers 7.12502
lthumb -2.39987 35.9149
rfemur -36.9733 4.05141 22.7522
rtibia 91.6851
rfoot 2.28367 -6.69485
rtoes -2.33298
lfemur -39.0118 1.76252 -21.636
ltibia 47.5916
lfoot -16.4102 12.5316
ltoes 12.1826
3072
root 1.28781 15.1835 3.4334 12.2336 -12.8629 -5.9863
lowerback -0.266945 -0.217613 -1.66838
upperback -5.20143 -0.232505 2.76418
thorax -5.21711 0.0230912 3.8191
lowerneck -11.0097 6.42013 17.6994
upperneck 37.8573 6.17727 -4.15926
head 16.2439 4.53798 -3.85673
rclavicle 3.25432e-015 -2.18663e-014
rhumerus 2.27743 15.2915 -62.0762
rradius 130.34
rwrist -11.7608
rhand -30.5551 9.36177
rfingers 7.12502
rthumb -3.85354 -20.5831
lclavicle 3.25432e-015 -2.18663e-014
lhumerus 7.47107 -26.5398 64.0637
lradius 134.928
lwrist 0.145965
lhand -29.0241 5.98002
lfingers 7.12502
lthumb -2.37497 35.9465
rfemur -35.0786 4.13124 22.3272
rtibia 89.9773
rfoot 2.14777 -7.22764
rtoes -1.89278
lfemur -39.78 2.05318 -21.7297
ltibia 47.8913
lfoot -16.3433 12.4732
ltoes 11.8844
3073
root 1.27962 15.1689 3.39082 12.6338 -13.3727 -5.86805
lowerback -0.475957 -0.121285 -1.6424
upperback -5.37154 -0.10699 2.61911
thorax -5.28643 0.0834845 3.64785
lowerneck -11.0297 6.51409 17.6895
upperneck 37.6363 6.38936 -4.33227
head 16.1693 4.59319 -3.88836
rclavicle -2.56452e-014 2.66371e-014
rhumerus 2.43839 15.4179 -62.1482
rradius 130.345
rwrist -11.8197
rhand -30.5514 9.34508
rfingers 7.12502
rthumb -3.84993 -20.5999
lclavicle -2.56452e-014 2.66371e-014
lhumerus 7.54583 -26.2023 63.8068
lradius 134.999
lwrist 0.163981
lhand -29.0163 6.03517
lfingers 7.12502
lthumb -2.36747 36.0018
rfemur -33.2209 4.12313 21.8744
rtibia 88.2515
rfoot 1.94283 -7.90669
rtoes -1.47233
lfemur -40.5138 2.35641 -21.8126
ltibia 48.1638
lfoot -16.2739 12.4423
ltoes 11.5351
